<mxfile host="Electron" agent="Mozilla/5.0 (Windows NT 10.0; Win64; x64) AppleWebKit/537.36 (KHTML, like Gecko) draw.io/24.7.17 Chrome/128.0.6613.36 Electron/32.0.1 Safari/537.36" version="24.7.17">
  <diagram id="zvKhBwdPb3ButcjtgDM9" name="Page-1">
    <mxGraphModel dx="1509" dy="1980" grid="1" gridSize="10" guides="1" tooltips="1" connect="1" arrows="1" fold="1" page="1" pageScale="1" pageWidth="850" pageHeight="1100" math="0" shadow="0">
      <root>
        <mxCell id="0" />
        <mxCell id="1" parent="0" />
        <mxCell id="hBEjbJueJkFpoXN3KEkt-58" style="edgeStyle=orthogonalEdgeStyle;rounded=0;orthogonalLoop=1;jettySize=auto;html=1;entryX=0.5;entryY=0;entryDx=0;entryDy=0;" parent="1" source="hBEjbJueJkFpoXN3KEkt-22" target="hBEjbJueJkFpoXN3KEkt-55" edge="1">
          <mxGeometry relative="1" as="geometry">
            <mxPoint x="240" y="-160" as="targetPoint" />
          </mxGeometry>
        </mxCell>
        <mxCell id="hBEjbJueJkFpoXN3KEkt-59" style="edgeStyle=orthogonalEdgeStyle;rounded=0;orthogonalLoop=1;jettySize=auto;html=1;entryX=0.5;entryY=0;entryDx=0;entryDy=0;" parent="1" source="hBEjbJueJkFpoXN3KEkt-22" target="hBEjbJueJkFpoXN3KEkt-56" edge="1">
          <mxGeometry relative="1" as="geometry" />
        </mxCell>
        <mxCell id="hBEjbJueJkFpoXN3KEkt-22" value="" style="shape=umlActor;verticalLabelPosition=bottom;verticalAlign=top;html=1;outlineConnect=0;" parent="1" vertex="1">
          <mxGeometry x="410" y="-260" width="30" height="60" as="geometry" />
        </mxCell>
        <mxCell id="hBEjbJueJkFpoXN3KEkt-47" value="API GATEWAY" style="swimlane;whiteSpace=wrap;html=1;" parent="1" vertex="1">
          <mxGeometry x="60" y="-110" width="730" height="510" as="geometry" />
        </mxCell>
        <mxCell id="hBEjbJueJkFpoXN3KEkt-31" value="" style="swimlane;startSize=0;" parent="hBEjbJueJkFpoXN3KEkt-47" vertex="1">
          <mxGeometry x="200" y="330" width="330" height="140" as="geometry" />
        </mxCell>
        <mxCell id="hBEjbJueJkFpoXN3KEkt-42" value="A" style="text;html=1;align=center;verticalAlign=middle;whiteSpace=wrap;rounded=0;" parent="hBEjbJueJkFpoXN3KEkt-31" vertex="1">
          <mxGeometry x="17.5" y="100" width="60" height="30" as="geometry" />
        </mxCell>
        <mxCell id="hBEjbJueJkFpoXN3KEkt-44" value="B" style="text;html=1;align=center;verticalAlign=middle;whiteSpace=wrap;rounded=0;" parent="hBEjbJueJkFpoXN3KEkt-31" vertex="1">
          <mxGeometry x="135" y="100" width="60" height="30" as="geometry" />
        </mxCell>
        <mxCell id="hBEjbJueJkFpoXN3KEkt-45" value="C" style="text;html=1;align=center;verticalAlign=middle;whiteSpace=wrap;rounded=0;" parent="hBEjbJueJkFpoXN3KEkt-31" vertex="1">
          <mxGeometry x="242.5" y="100" width="60" height="30" as="geometry" />
        </mxCell>
        <mxCell id="hBEjbJueJkFpoXN3KEkt-8" value="OrderCreated" style="text;html=1;align=center;verticalAlign=middle;whiteSpace=wrap;rounded=0;" parent="hBEjbJueJkFpoXN3KEkt-31" vertex="1">
          <mxGeometry x="135" y="15" width="60" height="30" as="geometry" />
        </mxCell>
        <mxCell id="hBEjbJueJkFpoXN3KEkt-16" value="" style="verticalLabelPosition=bottom;html=1;verticalAlign=top;align=center;strokeColor=none;fillColor=#00BEF2;shape=mxgraph.azure.service_bus_topics_and_subscriptions;pointerEvents=1;" parent="hBEjbJueJkFpoXN3KEkt-31" vertex="1">
          <mxGeometry x="143" y="50" width="45" height="50" as="geometry" />
        </mxCell>
        <mxCell id="hBEjbJueJkFpoXN3KEkt-1" value="" style="verticalLabelPosition=bottom;html=1;verticalAlign=top;align=center;strokeColor=none;fillColor=#00BEF2;shape=mxgraph.azure.service_bus_topics_and_subscriptions;pointerEvents=1;" parent="hBEjbJueJkFpoXN3KEkt-31" vertex="1">
          <mxGeometry x="25" y="50" width="45" height="50" as="geometry" />
        </mxCell>
        <mxCell id="hBEjbJueJkFpoXN3KEkt-2" value="" style="verticalLabelPosition=bottom;html=1;verticalAlign=top;align=center;strokeColor=none;fillColor=#00BEF2;shape=mxgraph.azure.service_bus_topics_and_subscriptions;pointerEvents=1;" parent="hBEjbJueJkFpoXN3KEkt-31" vertex="1">
          <mxGeometry x="250" y="50" width="45" height="50" as="geometry" />
        </mxCell>
        <mxCell id="hBEjbJueJkFpoXN3KEkt-7" value="OrderCompleted" style="text;html=1;align=center;verticalAlign=middle;whiteSpace=wrap;rounded=0;" parent="hBEjbJueJkFpoXN3KEkt-31" vertex="1">
          <mxGeometry x="17.5" y="15" width="60" height="30" as="geometry" />
        </mxCell>
        <mxCell id="hBEjbJueJkFpoXN3KEkt-17" value="PriceUpdated" style="text;html=1;align=center;verticalAlign=middle;whiteSpace=wrap;rounded=0;" parent="hBEjbJueJkFpoXN3KEkt-31" vertex="1">
          <mxGeometry x="242.5" y="15" width="60" height="30" as="geometry" />
        </mxCell>
        <mxCell id="kncZ64vfSaHuot59cZs--38" style="edgeStyle=orthogonalEdgeStyle;rounded=0;orthogonalLoop=1;jettySize=auto;html=1;entryX=1;entryY=0.5;entryDx=0;entryDy=0;entryPerimeter=0;" parent="hBEjbJueJkFpoXN3KEkt-47" source="kncZ64vfSaHuot59cZs--1" target="kncZ64vfSaHuot59cZs--37" edge="1">
          <mxGeometry relative="1" as="geometry">
            <mxPoint x="141.25" y="230" as="targetPoint" />
          </mxGeometry>
        </mxCell>
        <mxCell id="kncZ64vfSaHuot59cZs--1" value="Order service" style="whiteSpace=wrap;html=1;aspect=fixed;" parent="hBEjbJueJkFpoXN3KEkt-47" vertex="1">
          <mxGeometry x="201.25" y="190" width="80" height="80" as="geometry" />
        </mxCell>
        <mxCell id="kncZ64vfSaHuot59cZs--26" style="edgeStyle=orthogonalEdgeStyle;rounded=0;orthogonalLoop=1;jettySize=auto;html=1;" parent="hBEjbJueJkFpoXN3KEkt-47" source="kncZ64vfSaHuot59cZs--2" edge="1">
          <mxGeometry relative="1" as="geometry">
            <mxPoint x="593.75" y="230" as="targetPoint" />
          </mxGeometry>
        </mxCell>
        <mxCell id="kncZ64vfSaHuot59cZs--2" value="Porfolio service" style="whiteSpace=wrap;html=1;aspect=fixed;" parent="hBEjbJueJkFpoXN3KEkt-47" vertex="1">
          <mxGeometry x="448.75" y="190" width="80" height="80" as="geometry" />
        </mxCell>
        <mxCell id="hBEjbJueJkFpoXN3KEkt-24" style="edgeStyle=orthogonalEdgeStyle;rounded=0;orthogonalLoop=1;jettySize=auto;html=1;" parent="hBEjbJueJkFpoXN3KEkt-47" source="kncZ64vfSaHuot59cZs--3" edge="1">
          <mxGeometry relative="1" as="geometry">
            <mxPoint x="276.25" y="90" as="targetPoint" />
          </mxGeometry>
        </mxCell>
        <mxCell id="hBEjbJueJkFpoXN3KEkt-40" style="edgeStyle=orthogonalEdgeStyle;rounded=0;orthogonalLoop=1;jettySize=auto;html=1;" parent="hBEjbJueJkFpoXN3KEkt-47" source="kncZ64vfSaHuot59cZs--3" edge="1">
          <mxGeometry relative="1" as="geometry">
            <mxPoint x="366.25" y="200" as="targetPoint" />
          </mxGeometry>
        </mxCell>
        <mxCell id="Skwu8MusxkoqqQe7stV1-112" style="edgeStyle=orthogonalEdgeStyle;rounded=0;orthogonalLoop=1;jettySize=auto;html=1;entryX=0;entryY=0.5;entryDx=0;entryDy=0;" edge="1" parent="hBEjbJueJkFpoXN3KEkt-47" source="kncZ64vfSaHuot59cZs--3" target="Skwu8MusxkoqqQe7stV1-109">
          <mxGeometry relative="1" as="geometry">
            <mxPoint x="440" y="90" as="targetPoint" />
          </mxGeometry>
        </mxCell>
        <mxCell id="kncZ64vfSaHuot59cZs--3" value="Price service" style="whiteSpace=wrap;html=1;aspect=fixed;" parent="hBEjbJueJkFpoXN3KEkt-47" vertex="1">
          <mxGeometry x="326.25" y="50" width="80" height="80" as="geometry" />
        </mxCell>
        <mxCell id="hBEjbJueJkFpoXN3KEkt-54" style="edgeStyle=orthogonalEdgeStyle;rounded=0;orthogonalLoop=1;jettySize=auto;html=1;" parent="hBEjbJueJkFpoXN3KEkt-47" source="kncZ64vfSaHuot59cZs--12" edge="1">
          <mxGeometry relative="1" as="geometry">
            <mxPoint x="366" y="330" as="targetPoint" />
          </mxGeometry>
        </mxCell>
        <mxCell id="kncZ64vfSaHuot59cZs--12" value="" style="image;sketch=0;aspect=fixed;html=1;points=[];align=center;fontSize=12;image=img/lib/mscae/Service_Bus.svg;" parent="hBEjbJueJkFpoXN3KEkt-47" vertex="1">
          <mxGeometry x="341.25" y="205" width="50" height="50" as="geometry" />
        </mxCell>
        <mxCell id="kncZ64vfSaHuot59cZs--25" value="DB" style="shape=cylinder3;whiteSpace=wrap;html=1;boundedLbl=1;backgroundOutline=1;size=15;" parent="hBEjbJueJkFpoXN3KEkt-47" vertex="1">
          <mxGeometry x="598.75" y="190" width="60" height="80" as="geometry" />
        </mxCell>
        <mxCell id="kncZ64vfSaHuot59cZs--37" value="DB" style="shape=cylinder3;whiteSpace=wrap;html=1;boundedLbl=1;backgroundOutline=1;size=15;" parent="hBEjbJueJkFpoXN3KEkt-47" vertex="1">
          <mxGeometry x="71.25" y="190" width="60" height="80" as="geometry" />
        </mxCell>
        <mxCell id="hBEjbJueJkFpoXN3KEkt-23" value="DB" style="shape=cylinder3;whiteSpace=wrap;html=1;boundedLbl=1;backgroundOutline=1;size=15;" parent="hBEjbJueJkFpoXN3KEkt-47" vertex="1">
          <mxGeometry x="211.25" y="50" width="60" height="80" as="geometry" />
        </mxCell>
        <mxCell id="hBEjbJueJkFpoXN3KEkt-36" value="" style="endArrow=classic;startArrow=classic;html=1;rounded=0;" parent="hBEjbJueJkFpoXN3KEkt-47" target="kncZ64vfSaHuot59cZs--12" edge="1">
          <mxGeometry width="50" height="50" relative="1" as="geometry">
            <mxPoint x="281.25" y="230" as="sourcePoint" />
            <mxPoint x="331.25" y="180" as="targetPoint" />
          </mxGeometry>
        </mxCell>
        <mxCell id="hBEjbJueJkFpoXN3KEkt-37" value="" style="endArrow=classic;startArrow=classic;html=1;rounded=0;" parent="hBEjbJueJkFpoXN3KEkt-47" edge="1">
          <mxGeometry width="50" height="50" relative="1" as="geometry">
            <mxPoint x="388.75" y="229.51999999999998" as="sourcePoint" />
            <mxPoint x="448.75" y="229.51999999999998" as="targetPoint" />
          </mxGeometry>
        </mxCell>
        <mxCell id="hBEjbJueJkFpoXN3KEkt-46" value="&lt;span style=&quot;color: rgb(240, 240, 240); font-family: Helvetica; font-size: 12px; font-style: normal; font-variant-ligatures: normal; font-variant-caps: normal; font-weight: 400; letter-spacing: normal; orphans: 2; text-align: center; text-indent: 0px; text-transform: none; widows: 2; word-spacing: 0px; -webkit-text-stroke-width: 0px; white-space: normal; background-color: rgb(27, 29, 30); text-decoration-thickness: initial; text-decoration-style: initial; text-decoration-color: initial; display: inline !important; float: none;&quot;&gt;D&lt;/span&gt;" style="text;whiteSpace=wrap;html=1;" parent="hBEjbJueJkFpoXN3KEkt-47" vertex="1">
          <mxGeometry x="376.25" y="150" width="30" height="40" as="geometry" />
        </mxCell>
        <mxCell id="hBEjbJueJkFpoXN3KEkt-50" value="&lt;div style=&quot;text-align: center;&quot;&gt;A/B/C&lt;/div&gt;" style="text;whiteSpace=wrap;html=1;" parent="hBEjbJueJkFpoXN3KEkt-47" vertex="1">
          <mxGeometry x="286.25" y="200" width="30" height="40" as="geometry" />
        </mxCell>
        <mxCell id="hBEjbJueJkFpoXN3KEkt-51" value="&lt;div style=&quot;text-align: center;&quot;&gt;A/B/C&lt;/div&gt;" style="text;whiteSpace=wrap;html=1;" parent="hBEjbJueJkFpoXN3KEkt-47" vertex="1">
          <mxGeometry x="396.25" y="200" width="30" height="40" as="geometry" />
        </mxCell>
        <mxCell id="Skwu8MusxkoqqQe7stV1-109" value="Has CQRS potential" style="text;html=1;align=center;verticalAlign=middle;whiteSpace=wrap;rounded=0;" vertex="1" parent="hBEjbJueJkFpoXN3KEkt-47">
          <mxGeometry x="458.75" y="75" width="60" height="30" as="geometry" />
        </mxCell>
        <mxCell id="hBEjbJueJkFpoXN3KEkt-55" value="POST api/order" style="text;html=1;align=center;verticalAlign=middle;whiteSpace=wrap;rounded=0;" parent="1" vertex="1">
          <mxGeometry x="230" y="-150" width="60" height="30" as="geometry" />
        </mxCell>
        <mxCell id="hBEjbJueJkFpoXN3KEkt-56" value="GET api/user/{userId}/portfolio" style="text;html=1;align=center;verticalAlign=middle;whiteSpace=wrap;rounded=0;" parent="1" vertex="1">
          <mxGeometry x="550" y="-150" width="60" height="30" as="geometry" />
        </mxCell>
        <mxCell id="hBEjbJueJkFpoXN3KEkt-60" value="Mitko" style="text;html=1;align=center;verticalAlign=middle;whiteSpace=wrap;rounded=0;" parent="1" vertex="1">
          <mxGeometry x="395" y="-290" width="60" height="30" as="geometry" />
        </mxCell>
      </root>
    </mxGraphModel>
  </diagram>
</mxfile>
